<mxfile host="app.diagrams.net" modified="2023-08-12T18:06:37.186Z" agent="Mozilla/5.0 (X11; Linux x86_64) AppleWebKit/537.36 (KHTML, like Gecko) Chrome/115.0.0.0 Safari/537.36" version="21.6.8" etag="BXfSndjs70HkzE69iLnU" type="github">
  <diagram name="Page-1" id="uwe25L8UkLz4zijWbk_1">
    <mxGraphModel>
      <root>
        <mxCell id="0" />
        <mxCell id="1" parent="0" />
      </root>
    </mxGraphModel>
  </diagram>
</mxfile>
